Coordinates
version=1
nRows=19
nColumns=63
inDegrees=yes

Units are S.I. units (second, meters, Newtons, ...)
If the header above contains a line with 'inDegrees', this indicates whether rotational values are in degrees (yes) or radians (no).

endheader
time	pelvis_tilt	pelvis_list	pelvis_rotation	pelvis_tx	pelvis_ty	pelvis_tz	hip_flexion_r	hip_adduction_r	hip_rotation_r	knee_angle_r	knee_angle_r_beta	ankle_angle_r	subtalar_angle_r	mtp_angle_r	hip_flexion_l	hip_adduction_l	hip_rotation_l	knee_angle_l	knee_angle_l_beta	ankle_angle_l	subtalar_angle_l	mtp_angle_l	L5_S1_Flex_Ext	L5_S1_Lat_Bending	L5_S1_axial_rotation	L4_L5_Flex_Ext	L4_L5_Lat_Bending	L4_L5_axial_rotation	L3_L4_Flex_Ext	L3_L4_Lat_Bending	L3_L4_axial_rotation	L2_L3_Flex_Ext	L2_L3_Lat_Bending	L2_L3_axial_rotation	L1_L2_Flex_Ext	L1_L2_Lat_Bending	L1_L2_axial_rotation	L1_T12_Flex_Ext	L1_T12_Lat_Bending	L1_T12_axial_rotation	Abs_r3	Abs_r2	Abs_r1	Abs_t1	Abs_t2	neck_flexion	neck_bending	neck_rotation	arm_flex_r	arm_add_r	arm_rot_r	elbow_flex_r	pro_sup_r	wrist_flex_r	wrist_dev_r	arm_flex_l	arm_add_l	arm_rot_l	elbow_flex_l	pro_sup_l	wrist_flex_l	wrist_dev_l
0.000000	-4.255766	-4.262770	85.901120	0.205583	0.911605	0.545264	10.143819	-4.754573	-8.274862	11.909838	0.207866	29.983698	15.128767	0.000000	7.375703	3.556970	8.167387	4.172045	0.072816	21.276413	-11.930234	0.000000	-0.012694	-0.595144	2.720211	-0.023574	-0.791541	2.890225	-0.020855	-1.447032	2.890225	-0.014508	-1.447032	2.380185	-0.011788	-1.213617	2.210172	-0.007253	-0.921877	2.040159	-0.090673	-6.732383	15.129000	0.000000	0.000000	23.961908	3.511684	-9.377473	8.715043	-7.529868	38.645220	41.955777	88.483344	3.839874	-2.038914	22.173379	-7.468834	71.930021	38.149904	58.581901	5.041391	-4.320836
0.016667	-4.009684	-4.093869	85.845172	0.204936	0.911834	0.545064	10.049930	-4.496200	-7.210702	11.935360	0.208311	30.039560	13.700058	0.000000	7.193765	3.385081	8.124875	4.402737	0.076842	21.495545	-12.365370	0.000000	-0.023398	-0.558435	2.668349	-0.043453	-0.742719	2.835121	-0.038441	-1.357779	2.835121	-0.026742	-1.357779	2.334805	-0.021728	-1.138761	2.168034	-0.013370	-0.865016	2.001262	-0.167132	-6.317131	14.840556	0.000000	0.000000	23.670511	3.772964	-9.056544	8.893713	-7.563439	38.652031	42.110890	84.800122	3.938105	-2.274627	21.979819	-7.257435	70.418713	38.125910	58.907791	5.482806	-3.762963
0.033333	-3.792401	-3.968313	85.798045	0.204358	0.912044	0.544891	9.977813	-4.268725	-6.331761	11.940123	0.208394	30.063022	12.528815	0.000000	7.056806	3.231395	8.136290	4.609009	0.080442	21.576264	-12.765183	0.000000	-0.031779	-0.525930	2.617089	-0.059016	-0.699487	2.780657	-0.052209	-1.278746	2.780657	-0.036320	-1.278746	2.289953	-0.029510	-1.072476	2.126385	-0.018158	-0.814666	1.962817	-0.226991	-5.949425	14.555465	0.000000	0.000000	23.395630	3.942744	-8.750621	9.065367	-7.594187	38.710548	42.239077	81.478567	4.033789	-2.427102	21.763513	-7.091332	68.992810	38.138471	59.186227	5.789293	-3.308820
0.050000	-3.602007	-3.881866	85.759338	0.203845	0.912236	0.544742	9.925608	-4.070179	-5.623889	11.926977	0.208165	30.057797	11.595057	0.000000	6.960700	3.094750	8.192896	4.792858	0.083651	21.534994	-13.130125	0.000000	-0.038038	-0.497341	2.566748	-0.070641	-0.661463	2.727170	-0.062493	-1.209235	2.727170	-0.043474	-1.209235	2.245904	-0.035322	-1.014178	2.085483	-0.021735	-0.770381	1.925061	-0.271704	-5.626020	14.275481	0.000000	0.000000	23.137758	4.030365	-8.460073	9.229919	-7.622300	38.815173	42.340888	78.509804	4.125133	-2.508015	21.528942	-6.966280	67.655506	38.183136	59.410233	5.977266	-2.945158
0.066667	-3.436586	-3.830288	85.728650	0.203392	0.912410	0.544618	9.891456	-3.898594	-5.072939	11.898772	0.207673	30.027597	10.878805	0.000000	6.901319	2.973984	8.285956	4.956280	0.086503	21.388156	-13.460644	0.000000	-0.042381	-0.472381	2.517640	-0.078706	-0.628266	2.674993	-0.069628	-1.148547	2.674993	-0.048437	-1.148547	2.202935	-0.039355	-0.963279	2.045583	-0.024217	-0.731718	1.888230	-0.302724	-5.343666	14.002360	0.000000	0.000000	22.897390	4.045170	-8.185272	9.387287	-7.647967	38.960309	42.416870	75.884958	4.210343	-2.529037	21.280583	-6.878037	66.409999	38.255453	59.572832	6.063134	-2.658727
0.083333	-3.294225	-3.809341	85.705578	0.202995	0.912564	0.544516	9.873498	-3.752000	-4.664760	11.858359	0.206967	29.976134	10.360082	0.000000	6.874538	2.867936	8.406731	5.101272	0.089034	21.152170	-13.757192	0.000000	-0.045010	-0.450762	2.470082	-0.083589	-0.599514	2.624462	-0.073948	-1.095984	2.624462	-0.051442	-1.095984	2.161322	-0.041797	-0.919195	2.006942	-0.025719	-0.698231	1.852561	-0.321505	-5.099115	13.737855	0.000000	0.000000	22.675020	3.996500	-7.926589	9.537385	-7.671376	39.140358	42.467572	73.595152	4.287626	-2.501841	21.022917	-6.822359	65.259486	38.350968	59.667047	6.063311	-2.436280
0.100000	-3.173011	-3.814789	85.689721	0.202648	0.912699	0.544436	9.869876	-3.628429	-4.385203	11.808587	0.206099	29.907123	10.018908	0.000000	6.876229	2.775443	8.546483	5.229832	0.091278	20.843460	-14.020218	0.000000	-0.046130	-0.432199	2.424389	-0.085668	-0.574824	2.575913	-0.075787	-1.050848	2.575913	-0.052722	-1.050848	2.121340	-0.042836	-0.881340	1.969816	-0.026359	-0.669476	1.818292	-0.329502	-4.889120	13.483723	0.000000	0.000000	22.471141	3.893698	-7.684395	9.680130	-7.692714	39.349724	42.493542	71.631512	4.355189	-2.438101	20.760424	-6.795002	64.207163	38.465230	59.685904	5.994207	-2.264566
0.116667	-3.071031	-3.842391	85.680677	0.202347	0.912813	0.544378	9.878731	-3.525911	-4.220118	11.752307	0.205116	29.824275	9.835304	0.000000	6.902266	2.695344	8.696476	5.343955	0.093270	20.478446	-14.250172	0.000000	-0.045943	-0.416403	2.380876	-0.085321	-0.553816	2.529681	-0.075480	-1.012442	2.529681	-0.052509	-1.012442	2.083266	-0.042663	-0.849129	1.934462	-0.026252	-0.645008	1.785657	-0.328168	-4.710431	13.241717	0.000000	0.000000	22.286249	3.746104	-7.459062	9.815439	-7.712171	39.582809	42.495328	69.985162	4.411239	-2.349490	20.497582	-6.791722	63.256228	38.593787	59.622426	5.872235	-2.130335
0.133333	-2.986371	-3.887911	85.678045	0.202086	0.912907	0.544339	9.898203	-3.442478	-4.155358	11.692368	0.204070	29.731304	9.789292	0.000000	6.948521	2.626477	8.847971	5.445639	0.095044	20.073550	-14.447506	0.000000	-0.044654	-0.403087	2.339859	-0.082926	-0.536106	2.486100	-0.073362	-0.980066	2.486100	-0.051035	-0.980066	2.047377	-0.041465	-0.821975	1.901136	-0.025515	-0.624382	1.754894	-0.318957	-4.559802	13.013594	0.000000	0.000000	22.120837	3.563062	-7.250960	9.943227	-7.729933	39.834015	42.473478	68.647227	4.453983	-2.247679	20.238872	-6.808277	62.409876	38.732187	59.469636	5.713805	-2.020340
0.150000	-2.917117	-3.947110	85.681424	0.201862	0.912980	0.544318	9.926433	-3.376160	-4.176771	11.631622	0.203010	29.631922	9.860891	0.000000	7.010868	2.567680	8.992231	5.536880	0.096637	19.645194	-14.612668	0.000000	-0.042465	-0.391965	2.301654	-0.078862	-0.521313	2.445507	-0.069766	-0.953023	2.445507	-0.048533	-0.953023	2.013947	-0.039433	-0.799295	1.870094	-0.024265	-0.607153	1.726240	-0.303323	-4.433984	12.801108	0.000000	0.000000	21.975398	3.353911	-7.060461	10.063411	-7.746188	40.097746	42.428541	67.608830	4.481627	-2.144344	19.988773	-6.840423	61.671306	38.875977	59.220559	5.535330	-1.921330
0.166667	-2.861357	-4.015750	85.690411	0.201670	0.913032	0.544316	9.961564	-3.324988	-4.270210	11.572918	0.201986	29.529841	10.030125	0.000000	7.085181	2.517791	9.120517	5.619676	0.098082	19.209799	-14.746109	0.000000	-0.039581	-0.382749	2.266576	-0.073505	-0.509056	2.408237	-0.065027	-0.930615	2.408237	-0.045237	-0.930615	1.983254	-0.036755	-0.780501	1.841593	-0.022616	-0.592878	1.699932	-0.282721	-4.329728	12.606014	0.000000	0.000000	21.850429	3.127996	-6.887936	10.175906	-7.761126	40.368404	42.361065	66.861096	4.492379	-2.051155	19.751764	-6.883917	61.043712	39.020706	58.868219	5.353222	-1.820057
0.183333	-2.817884	-4.097793	85.711668	0.201491	0.913043	0.544318	10.019337	-3.284647	-4.354977	11.520821	0.201076	29.423522	10.197374	0.000000	7.174754	2.476470	9.255444	5.679822	0.099132	18.880295	-14.810028	0.000000	-0.034964	-0.375241	2.242043	-0.064931	-0.499070	2.382171	-0.057442	-0.912361	2.382171	-0.039960	-0.912361	1.961788	-0.032467	-0.765191	1.821660	-0.019978	-0.581248	1.681532	-0.249743	-4.244801	12.469570	0.000000	0.000000	21.752727	2.909224	-6.764039	10.240785	-7.769772	40.499804	42.323006	66.090313	4.419207	-1.995702	19.536495	-6.902370	60.487159	39.181209	58.220561	5.154800	-1.606337
0.200000	-2.775767	-4.170822	85.747663	0.201321	0.913016	0.544340	10.068582	-3.251339	-4.523734	11.483781	0.200430	29.338180	10.457341	0.000000	7.256025	2.436364	9.325260	5.751760	0.100387	18.528317	-14.898156	0.000000	-0.030523	-0.368096	2.217913	-0.056684	-0.489567	2.356533	-0.050146	-0.894988	2.356533	-0.034885	-0.894988	1.940674	-0.028344	-0.750621	1.802054	-0.017441	-0.570180	1.663435	-0.218022	-4.163974	12.335367	0.000000	0.000000	21.679158	2.675339	-6.691326	10.297616	-7.773061	40.659050	42.236942	65.747316	4.366441	-1.933073	19.363399	-6.939391	60.178366	39.329976	57.459581	4.954249	-1.385197
0.216667	-2.732931	-4.228683	85.771656	0.201180	0.912966	0.544403	10.111917	-3.218571	-4.727112	11.467174	0.200140	29.255721	10.773303	0.000000	7.337017	2.390287	9.259931	5.863653	0.102340	18.207574	-14.935138	0.000000	-0.026802	-0.360331	2.192847	-0.049774	-0.479241	2.329899	-0.044033	-0.876110	2.329899	-0.030632	-0.876110	1.918741	-0.024888	-0.734788	1.781688	-0.015315	-0.558153	1.644635	-0.191443	-4.076140	12.195955	0.000000	0.000000	21.629119	2.465368	-6.567292	10.418306	-7.797715	41.012963	42.058151	66.021545	4.278824	-2.042048	19.202303	-6.978230	59.950320	39.421043	56.625285	4.975604	-1.103501
0.233333	-2.696955	-4.267629	85.791954	0.201060	0.912905	0.544482	10.143448	-3.198308	-4.985866	11.471057	0.200208	29.192979	11.166345	0.000000	7.398389	2.348700	9.092546	5.978324	0.104341	17.903003	-14.944111	0.000000	-0.024474	-0.353636	2.171301	-0.045450	-0.470335	2.307007	-0.040208	-0.859830	2.307007	-0.027971	-0.859830	1.899888	-0.022726	-0.721134	1.764182	-0.013984	-0.547782	1.628475	-0.174812	-4.000397	12.076123	0.000000	0.000000	21.594114	2.284789	-6.474369	10.546035	-7.830519	41.414677	41.841809	66.732653	4.182270	-2.234615	19.100554	-7.028080	59.957755	39.485568	55.694896	5.054542	-0.853991
0.250000	-2.668724	-4.291506	85.815509	0.200958	0.912844	0.544552	10.159316	-3.182205	-5.215824	11.479677	0.200358	29.125307	11.500391	0.000000	7.441111	2.314369	8.911450	6.081619	0.106144	17.640560	-14.963859	0.000000	-0.023195	-0.348002	2.152771	-0.043075	-0.462842	2.287319	-0.038107	-0.846132	2.287319	-0.026509	-0.846132	1.883675	-0.021539	-0.709645	1.749126	-0.013254	-0.539055	1.614578	-0.165679	-3.936667	11.973066	0.000000	0.000000	21.580806	2.149780	-6.371217	10.646052	-7.852422	41.750808	41.607805	67.578179	4.130106	-2.464893	18.995531	-7.071455	59.962949	39.542871	54.742302	5.250683	-0.514286
0.266667	-2.659919	-4.308108	85.834977	0.200888	0.912785	0.544647	10.175784	-3.188132	-5.478455	11.500824	0.200727	29.073790	11.860292	0.000000	7.480129	2.297491	8.685860	6.168041	0.107653	17.463850	-14.931481	0.000000	-0.022468	-0.345264	2.138679	-0.041725	-0.459201	2.272346	-0.036912	-0.839475	2.272346	-0.025678	-0.839475	1.871344	-0.020864	-0.704062	1.737676	-0.012838	-0.534814	1.604009	-0.160485	-3.905695	11.894689	0.000000	0.000000	21.590217	2.066340	-6.276532	10.747188	-7.870890	42.022430	41.376267	68.874149	4.084488	-2.747521	18.952219	-7.118493	60.108942	39.577108	53.836057	5.534622	-0.177936
0.283333	-2.669852	-4.320105	85.848784	0.200847	0.912740	0.544704	10.185603	-3.202079	-5.627664	11.518270	0.201032	29.019717	12.067754	0.000000	7.514510	2.299413	8.490376	6.227281	0.108687	17.395763	-14.878279	0.000000	-0.021085	-0.345691	2.135934	-0.039158	-0.459769	2.269430	-0.034641	-0.840512	2.269430	-0.024098	-0.840512	1.868942	-0.019580	-0.704932	1.735446	-0.012048	-0.535475	1.601950	-0.150610	-3.910522	11.879423	0.000000	0.000000	21.607970	2.036804	-6.234370	10.785750	-7.873668	42.166901	41.173878	69.674862	4.158791	-3.003012	18.944417	-7.148628	60.366956	39.571092	53.094101	5.813861	0.005930
0.300000	-2.702184	-4.318759	85.849830	0.200820	0.912730	0.544772	10.189199	-3.240880	-5.773308	11.540379	0.201418	28.997631	12.265254	0.000000	7.531609	2.325457	8.322570	6.238407	0.108881	17.452972	-14.788564	0.000000	-0.021937	-0.349166	2.139711	-0.040738	-0.464391	2.273443	-0.036040	-0.848963	2.273443	-0.025071	-0.848963	1.872247	-0.020370	-0.712020	1.738515	-0.012535	-0.540858	1.604783	-0.156690	-3.949838	11.900429	0.000000	0.000000	21.633289	2.064626	-6.200841	10.815673	-7.871603	42.231273	41.004528	70.632507	4.211139	-3.268011	18.989410	-7.174999	60.719329	39.551429	52.353815	6.133801	0.208913
